<svg width="24" height="26" viewBox="0 0 24 26" fill="none" xmlns="http://www.w3.org/2000/svg">
<path d="M14.0183 23.5C13.8132 23.8536 13.5188 24.1471 13.1646 24.3511C12.8104 24.5551 12.4088 24.6625 12 24.6625C11.5912 24.6625 11.1896 24.5551 10.8354 24.3511C10.4812 24.1471 10.1868 23.8536 9.98167 23.5M19 8.33333C19 6.47681 18.2625 4.69634 16.9497 3.38358C15.637 2.07083 13.8565 1.33333 12 1.33333C10.1435 1.33333 8.36301 2.07083 7.05025 3.38358C5.7375 4.69634 5 6.47681 5 8.33333C5 16.5 1.5 18.8333 1.5 18.8333H22.5C22.5 18.8333 19 16.5 19 8.33333Z" stroke="#1E1E1E" stroke-width="2" stroke-linecap="round" stroke-linejoin="round"/>
</svg>
