<svg width="10" height="27" viewBox="0 0 10 27" fill="none" xmlns="http://www.w3.org/2000/svg">
<g clip-path="url(#clip0_745_105)">
<rect width="10" height="27" fill="white"/>
<path d="M5.00002 15.3333C5.7364 15.3333 6.33335 14.7364 6.33335 14C6.33335 13.2636 5.7364 12.6667 5.00002 12.6667C4.26364 12.6667 3.66669 13.2636 3.66669 14C3.66669 14.7364 4.26364 15.3333 5.00002 15.3333Z" fill="#6C6C6C"/>
<path d="M5.00002 6C5.7364 6 6.33335 5.40305 6.33335 4.66667C6.33335 3.93029 5.7364 3.33333 5.00002 3.33333C4.26364 3.33333 3.66669 3.93029 3.66669 4.66667C3.66669 5.40305 4.26364 6 5.00002 6Z" fill="#6C6C6C"/>
<path d="M5.00002 24.6667C5.7364 24.6667 6.33335 24.0697 6.33335 23.3333C6.33335 22.597 5.7364 22 5.00002 22C4.26364 22 3.66669 22.597 3.66669 23.3333C3.66669 24.0697 4.26364 24.6667 5.00002 24.6667Z" fill="#6C6C6C"/>
<path d="M5.00002 15.3333C5.7364 15.3333 6.33335 14.7364 6.33335 14C6.33335 13.2636 5.7364 12.6667 5.00002 12.6667C4.26364 12.6667 3.66669 13.2636 3.66669 14C3.66669 14.7364 4.26364 15.3333 5.00002 15.3333Z" stroke="#6C6C6C" stroke-width="3" stroke-linecap="round" stroke-linejoin="round"/>
<path d="M5.00002 6C5.7364 6 6.33335 5.40305 6.33335 4.66667C6.33335 3.93029 5.7364 3.33333 5.00002 3.33333C4.26364 3.33333 3.66669 3.93029 3.66669 4.66667C3.66669 5.40305 4.26364 6 5.00002 6Z" stroke="#6C6C6C" stroke-width="3" stroke-linecap="round" stroke-linejoin="round"/>
<path d="M5.00002 24.6667C5.7364 24.6667 6.33335 24.0697 6.33335 23.3333C6.33335 22.597 5.7364 22 5.00002 22C4.26364 22 3.66669 22.597 3.66669 23.3333C3.66669 24.0697 4.26364 24.6667 5.00002 24.6667Z" stroke="#6C6C6C" stroke-width="3" stroke-linecap="round" stroke-linejoin="round"/>
</g>
<defs>
<clipPath id="clip0_745_105">
<rect width="10" height="27" fill="white"/>
</clipPath>
</defs>
</svg>
