<svg width="24" height="22" viewBox="0 0 24 22" fill="none" xmlns="http://www.w3.org/2000/svg">
<path d="M9.6059 2.21998C7.69517 2.21998 5.8627 2.91424 4.5116 4.15003C3.16051 5.38582 2.40148 7.06192 2.40148 8.80959C2.40148 10.5573 3.16051 12.2334 4.5116 13.4691C5.8627 14.7049 7.69517 15.3992 9.6059 15.3992C11.5166 15.3992 13.3491 14.7049 14.7002 13.4691C16.0513 12.2334 16.8103 10.5573 16.8103 8.80959C16.8103 7.06192 16.0513 5.38582 14.7002 4.15003C13.3491 2.91424 11.5166 2.21998 9.6059 2.21998ZM5.9336e-08 8.80959C0.000218926 7.41134 0.365286 6.03333 1.06486 4.79008C1.76444 3.54684 2.77832 2.47426 4.02224 1.6615C5.26616 0.84873 6.70419 0.319248 8.21683 0.117053C9.72947 -0.0851414 11.273 0.0457916 12.7192 0.498971C14.1654 0.95215 15.4725 1.71449 16.5318 2.72262C17.5911 3.73076 18.372 4.95559 18.8097 6.2953C19.2474 7.63501 19.3291 9.05093 19.0482 10.4254C18.7673 11.7998 18.1318 13.0931 17.1946 14.1977L23.6629 20.1141C23.8817 20.3212 24.0027 20.5986 24 20.8866C23.9972 21.1745 23.8709 21.45 23.6483 21.6536C23.4257 21.8573 23.1245 21.9728 22.8097 21.9753C22.4949 21.9778 22.1916 21.8671 21.9651 21.667L15.4967 15.7506C14.0768 16.759 12.376 17.3826 10.5878 17.5507C8.79962 17.7188 6.99573 17.4245 5.38128 16.7014C3.76684 15.9783 2.40663 14.8553 1.45532 13.4602C0.504021 12.0651 -0.000199707 10.4538 5.9336e-08 8.80959Z" fill="#0D0D0D"/>
</svg>
