<svg width="24" height="24" viewBox="0 0 24 24" fill="none" xmlns="http://www.w3.org/2000/svg">
<path d="M2 6.88889V2.66667C2 2.29848 2.29848 2 2.66667 2H9.11111C9.4793 2 9.77778 2.29848 9.77778 2.66667V6.88889C9.77778 7.25708 9.4793 7.55555 9.11111 7.55555H2.66667C2.29848 7.55555 2 7.25708 2 6.88889Z" stroke="black" stroke-width="2.2"/>
<path d="M14.2222 21.3333V17.1111C14.2222 16.7429 14.5207 16.4445 14.8889 16.4445H21.3333C21.7016 16.4445 22 16.7429 22 17.1111V21.3333C22 21.7016 21.7016 22 21.3333 22H14.8889C14.5207 22 14.2222 21.7016 14.2222 21.3333Z" stroke="black" stroke-width="2.2"/>
<path d="M14.2222 12.4444V2.66667C14.2222 2.29848 14.5207 2 14.8889 2H21.3333C21.7016 2 22 2.29848 22 2.66667V12.4444C22 12.8127 21.7016 13.1111 21.3333 13.1111H14.8889C14.5207 13.1111 14.2222 12.8127 14.2222 12.4444Z" stroke="black" stroke-width="2.2"/>
<path d="M2 21.3333V11.5556C2 11.1873 2.29848 10.8889 2.66667 10.8889H9.11111C9.4793 10.8889 9.77778 11.1873 9.77778 11.5556V21.3333C9.77778 21.7015 9.4793 22 9.11111 22H2.66667C2.29848 22 2 21.7015 2 21.3333Z" stroke="black" stroke-width="2.2"/>
</svg>
