<svg width="221" height="221" viewBox="0 0 221 221" fill="none" xmlns="http://www.w3.org/2000/svg">
<g clip-path="url(#clip0_652_101)">
<rect width="221" height="221" rx="110.5" fill="#F0F0F0"/>
<path d="M31.3188 176.163C42.2625 167.794 54.4938 161.195 68.0125 156.367C81.5313 151.539 95.6937 149.125 110.5 149.125C125.306 149.125 139.469 151.539 152.988 156.367C166.506 161.195 178.737 167.794 189.681 176.163C197.192 167.365 203.039 157.386 207.223 146.228C211.408 135.07 213.5 123.16 213.5 110.5C213.5 81.9604 203.468 57.6588 183.405 37.5953C163.341 17.5318 139.04 7.5 110.5 7.5C81.9604 7.5 57.6589 17.5318 37.5953 37.5953C17.5318 57.6588 7.5 81.9604 7.5 110.5C7.5 123.16 9.59219 135.07 13.7766 146.228C17.9609 157.386 23.8083 167.365 31.3188 176.163ZM110.5 123.375C97.8396 123.375 87.1641 119.03 78.4734 110.339C69.7828 101.648 65.4375 90.9729 65.4375 78.3125C65.4375 65.6521 69.7828 54.9766 78.4734 46.2859C87.1641 37.5953 97.8396 33.25 110.5 33.25C123.16 33.25 133.836 37.5953 142.527 46.2859C151.217 54.9766 155.562 65.6521 155.562 78.3125C155.562 90.9729 151.217 101.648 142.527 110.339C133.836 119.03 123.16 123.375 110.5 123.375ZM110.5 239.25C92.6896 239.25 75.9521 235.87 60.2875 229.111C44.6229 222.352 30.9969 213.178 19.4094 201.591C7.82187 190.003 -1.35156 176.377 -8.11094 160.713C-14.8703 145.048 -18.25 128.31 -18.25 110.5C-18.25 92.6896 -14.8703 75.9521 -8.11094 60.2875C-1.35156 44.6229 7.82187 30.9969 19.4094 19.4094C30.9969 7.82187 44.6229 -1.35156 60.2875 -8.11094C75.9521 -14.8703 92.6896 -18.25 110.5 -18.25C128.31 -18.25 145.048 -14.8703 160.713 -8.11094C176.377 -1.35156 190.003 7.82187 201.591 19.4094C213.178 30.9969 222.352 44.6229 229.111 60.2875C235.87 75.9521 239.25 92.6896 239.25 110.5C239.25 128.31 235.87 145.048 229.111 160.713C222.352 176.377 213.178 190.003 201.591 201.591C190.003 213.178 176.377 222.352 160.713 229.111C145.048 235.87 128.31 239.25 110.5 239.25Z" fill="#DBDBDB"/>
</g>
<defs>
<clipPath id="clip0_652_101">
<rect width="221" height="221" rx="110.5" fill="white"/>
</clipPath>
</defs>
</svg>
