<svg width="22" height="14" viewBox="0 0 22 14" fill="none" xmlns="http://www.w3.org/2000/svg">
<path d="M20.3917 5.83333H1.60833C0.996218 5.83333 0.5 6.32955 0.5 6.94166V7.05833C0.5 7.67044 0.996218 8.16666 1.60833 8.16666H20.3917C21.0038 8.16666 21.5 7.67044 21.5 7.05833V6.94166C21.5 6.32955 21.0038 5.83333 20.3917 5.83333Z" fill="#2D2D2D"/>
<path d="M20.3917 11.6667H1.60833C0.996218 11.6667 0.5 12.1629 0.5 12.775V12.8917C0.5 13.5038 0.996218 14 1.60833 14H20.3917C21.0038 14 21.5 13.5038 21.5 12.8917V12.775C21.5 12.1629 21.0038 11.6667 20.3917 11.6667Z" fill="#2D2D2D"/>
<path d="M20.3917 0H1.60833C0.996218 0 0.5 0.496217 0.5 1.10833V1.225C0.5 1.83712 0.996218 2.33333 1.60833 2.33333H20.3917C21.0038 2.33333 21.5 1.83712 21.5 1.225V1.10833C21.5 0.496217 21.0038 0 20.3917 0Z" fill="#2D2D2D"/>
</svg>
