<svg width="24" height="26" viewBox="0 0 24 26" fill="none" xmlns="http://www.w3.org/2000/svg">
<path d="M14.0183 23.5C13.8132 23.8536 13.5188 24.1471 13.1646 24.3511C12.8104 24.5551 12.4088 24.6625 12 24.6625C11.5912 24.6625 11.1896 24.5551 10.8354 24.3511C10.4812 24.1471 10.1868 23.8536 9.98167 23.5M19 8.33331C19 6.4768 18.2625 4.69632 16.9497 3.38357C15.637 2.07081 13.8565 1.33331 12 1.33331C10.1435 1.33331 8.36301 2.07081 7.05025 3.38357C5.7375 4.69632 5 6.4768 5 8.33331C5 16.5 1.5 18.8333 1.5 18.8333H22.5C22.5 18.8333 19 16.5 19 8.33331Z" stroke="#1E1E1E" stroke-width="2.5" stroke-linecap="round" stroke-linejoin="round"/>
</svg>
